<?xml version="1.0" encoding="utf-8"?>
<!-- Generator: Adobe Illustrator 25.0.0, SVG Export Plug-In . SVG Version: 6.00 Build 0)  -->
<svg version="1.1" id="Layer_1" xmlns="http://www.w3.org/2000/svg" xmlns:xlink="http://www.w3.org/1999/xlink" x="0px" y="0px"
	 viewBox="0 0 24 24" style="enable-background:new 0 0 24 24;" xml:space="preserve">
<g>
	<path d="M12,8.4c-2,0-3.6,1.6-3.6,3.6s1.6,3.6,3.6,3.6s3.6-1.6,3.6-3.6S14,8.4,12,8.4z M12,14.3c-1.3,0-2.3-1-2.3-2.3
		s1-2.3,2.3-2.3s2.3,1,2.3,2.3S13.3,14.3,12,14.3z"/>
	<circle cx="15.8" cy="8.3" r="0.8"/>
	<path d="M17.9,6.2c-0.7-0.8-1.8-1.2-3-1.2H9.1C6.6,5,5,6.6,5,9.1v5.8c0,1.2,0.4,2.3,1.2,3C6.9,18.6,8,19,9.1,19h5.8
		c1.2,0,2.2-0.4,3-1.1c0.8-0.7,1.2-1.8,1.2-3V9.1C19,7.9,18.6,6.9,17.9,6.2z M17.8,14.9c0,0.9-0.3,1.6-0.8,2.1
		c-0.5,0.5-1.2,0.7-2.1,0.7H9.1c-0.8,0-1.6-0.3-2.1-0.7c-0.5-0.5-0.8-1.2-0.8-2.1V9.1c0-0.8,0.3-1.6,0.8-2.1
		c0.5-0.5,1.2-0.7,2.1-0.7h5.8c0.8,0,1.6,0.3,2.1,0.8c0.5,0.5,0.8,1.2,0.8,2V14.9L17.8,14.9z"/>
</g>
</svg>
