<?xml version="1.0" encoding="utf-8"?>
<!-- Generator: Adobe Illustrator 25.0.0, SVG Export Plug-In . SVG Version: 6.00 Build 0)  -->
<svg version="1.1" id="b9d164a0-f9aa-42f6-aed8-a14c053e9183"
	 xmlns="http://www.w3.org/2000/svg" xmlns:xlink="http://www.w3.org/1999/xlink" x="0px" y="0px" viewBox="0 0 884 607.5"
	 style="enable-background:new 0 0 884 607.5;" xml:space="preserve">
<style type="text/css">
	.st0{fill:#FFFFFF;}
	.st1{fill:#3F3D56;}
	.st2{fill:#E6E6E6;}
	.st3{fill:#7DAAD3;}
	.st4{fill:#CCCCCC;}
	.st5{fill:#F1F1F1;}
	.st6{fill:#E5E5E5;}
</style>
<g>
	<path class="st0" d="M613.5,215.9h-0.1l-71.5,30.5L444,288.2c-0.8,0.3-1.6,0.3-2.4,0l-100.9-41.9L267.5,216l-0.1,0h-0.1
		c-2.4,0-4.4,2-4.4,4.4v189.3c0,2.4,2,4.4,4.4,4.4h346.2c2.4,0,4.4-2,4.4-4.4V220.3C617.8,217.9,615.9,215.9,613.5,215.9z"/>
	<path class="st1" d="M613.8,217.2c-0.1,0-0.3,0-0.4-0.1L441.2,97.1c-1.1-0.7-2.5-0.7-3.6,0L266.7,217c-0.3,0.2-0.7,0.1-0.9-0.2
		c-0.2-0.3-0.1-0.7,0.2-0.9l171-119.9c1.5-1,3.5-1,5,0L614.1,216c0.3,0.2,0.4,0.6,0.2,0.9C614.2,217.1,614,217.2,613.8,217.2z"/>
	<polygon class="st2" points="276.4,221.4 439.6,100.5 604,230 448,322.5 363.3,303.2 	"/>
	<path class="st3" d="M370.5,379.6h-80.6c-2.1,0-3.8-1.7-3.8-3.8c0-2.1,1.7-3.8,3.8-3.8h80.6c2.1,0,3.8,1.7,3.8,3.8
		C374.2,377.9,372.5,379.6,370.5,379.6L370.5,379.6z"/>
	<path class="st3" d="M318.8,363.4h-28.9c-2.1,0-3.8-1.7-3.8-3.8c0-2.1,1.7-3.8,3.8-3.8h28.9c2.1,0,3.8,1.7,3.8,3.8
		C322.5,361.7,320.9,363.4,318.8,363.4L318.8,363.4L318.8,363.4z"/>
	<path class="st0" d="M441.9,288.8c-0.6,0-1.2-0.1-1.8-0.4l-100.6-41.8V116c0-2.4,2-4.4,4.4-4.4h193c2.4,0,4.4,2,4.4,4.4v130.8
		l-0.2,0.1l-97.3,41.6C443.1,288.6,442.5,288.8,441.9,288.8z"/>
	<path class="st1" d="M441.9,289.1c-0.7,0-1.3-0.1-1.9-0.4l-100.8-41.8V116c0-2.6,2.1-4.7,4.7-4.7h193c2.6,0,4.7,2.1,4.7,4.7v131
		l-97.7,41.7C443.2,288.9,442.6,289.1,441.9,289.1z M340.4,246l100.1,41.5c0.9,0.4,2,0.4,2.9,0l96.9-41.4V116c0-1.9-1.5-3.4-3.4-3.4
		h-193c-1.9,0-3.4,1.5-3.4,3.4L340.4,246z"/>
	<path class="st1" d="M612.5,215.9h-0.1l-71.5,30.5l-97.8,41.8c-0.8,0.3-1.6,0.3-2.4,0l-100.9-41.9L266.5,216l-0.1,0h-0.1
		c-2.4,0-4.4,2-4.4,4.4v189.3c0,2.4,2,4.4,4.4,4.4h346.2c2.4,0,4.4-2,4.4-4.4V220.3C616.9,217.9,614.9,215.9,612.5,215.9z
		 M615.7,409.6c0,1.7-1.4,3.1-3.1,3.1H266.3c-1.7,0-3.1-1.4-3.1-3.1V220.3c0-1.7,1.3-3,3-3.1l73.6,30.5l100.4,41.7
		c1.1,0.4,2.3,0.4,3.4,0l97.3-41.6l71.7-30.6c1.7,0.1,3,1.4,3,3.1L615.7,409.6z"/>
	<path class="st3" d="M426.2,160.5h-68.5c-2.8,0-5-2.2-5-5c0-2.7,2.2-5,5-5h68.5c2.8,0,5,2.2,5,5C431.2,158.2,429,160.5,426.2,160.5
		z"/>
	<path class="st3" d="M390.7,139.3h-33c-2.8,0-5-2.2-5-5c0-2.8,2.2-5,5-5h33c2.8,0,5,2.2,5,5C395.7,137.1,393.5,139.3,390.7,139.3z"
		/>
	<path class="st4" d="M491.6,210.3H387c-2.8,0-5-2.2-5-5c0-2.7,2.2-5,5-5h104.6c2.8,0,5,2.2,5,5C496.6,208,494.3,210.3,491.6,210.3z
		"/>
	<path class="st4" d="M491.6,233.3H387c-2.8,0-5-2.2-5-5s2.2-5,5-5h104.6c2.8,0,5,2.2,5,5S494.3,233.3,491.6,233.3z"/>
	<circle class="st3" cx="610.6" cy="217.7" r="47.4"/>
	<polygon class="st0" points="606.1,237.7 591.9,219.5 600.2,213.1 606.9,221.7 629.6,197.8 637.1,204.9 	"/>
	<path class="st5" d="M170.1,135.1c-1-0.6-2.2-0.2-2.7,0.7c-0.2,0.4-0.3,0.8-0.3,1.3l1.5,11.3c0,0.2,0,0.3,0,0.5
		c0,0.2-0.1,0.3-0.2,0.4l-8.6,10.2c-0.6,0.7-0.6,1.7-0.1,2.4l0,0c0.5,0.7,1.4,1.1,2.3,0.8l6.2-2.1c0.4-0.1,0.9,0,1.2,0.3
		c0.2,0.2,0.4,0.5,0.4,0.9L170,184c0,0.7,0.3,1.3,0.9,1.6c0.5,0.4,1.2,0.4,1.8,0.2l46.6-17.8c1-0.4,1.5-1.5,1.2-2.6
		c-0.2-0.4-0.5-0.8-0.9-1l-0.6-0.4L170.1,135.1L170.1,135.1z M167.9,137c-0.1-0.7,0.4-1.3,1-1.3c0.3,0,0.5,0,0.8,0.2l48.8,29
		l0.7,0.4c0.6,0.3,0.8,1.1,0.4,1.6c-0.1,0.2-0.3,0.4-0.6,0.5l-46.6,17.8c-0.6,0.2-1.3-0.1-1.5-0.7c-0.1-0.1-0.1-0.3-0.1-0.4
		l-0.2-22.2c0-0.2,0-0.4-0.1-0.6l47.5,5.5c0.4,0.1,0.8-0.3,0.9-0.7c0-0.3-0.1-0.6-0.4-0.8c0,0-0.1,0-0.1-0.1l-48.8-16.3
		c0-0.1,0-0.3,0-0.4L167.9,137L167.9,137z"/>
	<path class="st6" d="M170.1,135.1c-1-0.6-2.2-0.2-2.7,0.7c-0.2,0.4-0.3,0.8-0.3,1.3l1.5,11.3c0,0.2,0,0.3,0,0.5
		c0,0.2-0.1,0.3-0.2,0.4l-8.6,10.2c-0.6,0.7-0.6,1.7-0.1,2.4l0,0c0.5,0.7,1.4,1.1,2.3,0.8l6.2-2.1c0.4-0.1,0.9,0,1.2,0.3
		c0.2,0.2,0.4,0.5,0.4,0.9L170,184c0,0.7,0.3,1.3,0.9,1.6c0.5,0.4,1.2,0.4,1.8,0.2l46.6-17.8c1-0.4,1.5-1.5,1.2-2.6
		c-0.2-0.4-0.5-0.8-0.9-1l-0.6-0.4L170.1,135.1L170.1,135.1z M167.9,137c-0.1-0.7,0.4-1.3,1-1.3c0.3,0,0.5,0,0.8,0.2l48.8,29
		l0.7,0.4c0.6,0.3,0.8,1.1,0.4,1.6c-0.1,0.2-0.3,0.4-0.6,0.5l-46.6,17.8c-0.6,0.2-1.3-0.1-1.5-0.7c-0.1-0.1-0.1-0.3-0.1-0.4
		l-0.2-22.2c0-0.2,0-0.4-0.1-0.6c-0.1-0.3-0.3-0.6-0.5-0.8c0,0-0.1-0.1-0.1-0.1l0,0c-0.5-0.4-1.3-0.6-1.9-0.4l-6.2,2.1
		c-0.5,0.2-1.1,0-1.4-0.5l0,0c-0.3-0.4-0.3-1,0.1-1.4l8.6-10.2c0.1-0.1,0.2-0.2,0.2-0.3l0,0c0.1-0.1,0.1-0.2,0.2-0.4
		c0-0.1,0.1-0.3,0.1-0.4c0-0.1,0-0.3,0-0.4L167.9,137L167.9,137z"/>
	<path class="st6" d="M169.4,148.8l48.8,16.3c0,0,0.1,0,0.1,0.1c0.4,0.2,0.5,0.7,0.3,1.1c-0.2,0.3-0.5,0.5-0.8,0.4l-47.5-5.5
		l-0.8-0.1l0.1-0.8l0.1,0l0,0l48.2,5.5l-48.7-16.3l0,0l-0.2-0.1l0.3-0.8L169.4,148.8z"/>
	<path class="st5" d="M713.9,88.1l-48.8,29l-0.6,0.4c-0.9,0.6-1.3,1.8-0.7,2.7c0.2,0.4,0.6,0.7,1,0.9l46.6,17.8
		c0.6,0.2,1.3,0.2,1.8-0.2c0.5-0.4,0.9-1,0.9-1.6l0.2-22.2c0-0.3,0.1-0.6,0.4-0.9c0.3-0.3,0.8-0.4,1.2-0.3l6.2,2.1
		c0.8,0.3,1.8,0,2.3-0.8l0,0c0.5-0.7,0.5-1.7-0.1-2.4l-8.6-10.2c-0.1-0.1-0.2-0.3-0.2-0.4c0-0.2-0.1-0.3,0-0.5l1.5-11.3
		c0.1-1.1-0.6-2.1-1.7-2.3C714.7,87.8,714.3,87.9,713.9,88.1L713.9,88.1z M716.1,90l-1.5,11.3c0,0.1,0,0.3,0,0.4L665.8,118
		c0,0-0.1,0-0.1,0.1c-0.4,0.2-0.5,0.7-0.3,1.1c0.2,0.3,0.5,0.5,0.8,0.4l47.5-5.5c-0.1,0.2-0.1,0.4-0.1,0.6l-0.2,22.2
		c0,0.7-0.6,1.2-1.2,1.2c-0.1,0-0.3,0-0.4-0.1L665,120.3c-0.6-0.2-0.9-0.9-0.7-1.6c0.1-0.2,0.3-0.5,0.5-0.6l0.7-0.4l48.8-29
		c0.6-0.3,1.3-0.1,1.6,0.4C716.1,89.5,716.1,89.7,716.1,90L716.1,90z"/>
	<path class="st6" d="M713.9,88.1l-48.8,29l-0.6,0.4c-0.9,0.6-1.3,1.8-0.7,2.7c0.2,0.4,0.6,0.7,1,0.9l46.6,17.8
		c0.6,0.2,1.3,0.2,1.8-0.2c0.5-0.4,0.9-1,0.9-1.6l0.2-22.2c0-0.3,0.1-0.6,0.4-0.9c0.3-0.3,0.8-0.4,1.2-0.3l6.2,2.1
		c0.8,0.3,1.8,0,2.3-0.8l0,0c0.5-0.7,0.5-1.7-0.1-2.4l-8.6-10.2c-0.1-0.1-0.2-0.3-0.2-0.4c0-0.2-0.1-0.3,0-0.5l1.5-11.3
		c0.1-1.1-0.6-2.1-1.7-2.3C714.7,87.8,714.3,87.9,713.9,88.1L713.9,88.1z M716.1,90l-1.5,11.3c0,0.1,0,0.3,0,0.4
		c0,0.1,0,0.3,0.1,0.4c0,0.1,0.1,0.3,0.2,0.4l0,0c0.1,0.1,0.1,0.2,0.2,0.3l8.6,10.2c0.4,0.4,0.4,1,0.1,1.4l0,0
		c-0.3,0.5-0.9,0.6-1.4,0.5l-6.2-2.1c-0.7-0.2-1.4-0.1-1.9,0.4l0,0c0,0-0.1,0.1-0.1,0.1c-0.2,0.2-0.4,0.5-0.5,0.8
		c-0.1,0.2-0.1,0.4-0.1,0.6l-0.2,22.2c0,0.7-0.6,1.2-1.2,1.2c-0.1,0-0.3,0-0.4-0.1L665,120.3c-0.6-0.2-0.9-0.9-0.7-1.6
		c0.1-0.2,0.3-0.5,0.5-0.6l0.7-0.4l48.8-29c0.6-0.3,1.3-0.1,1.6,0.4C716.1,89.5,716.1,89.7,716.1,90L716.1,90z"/>
	<path class="st6" d="M714.7,101.7l0.3,0.8l-0.2,0.1l0,0L666,118.8l48.2-5.5l0,0l0.1,0l0.1,0.8l-0.8,0.1l-47.5,5.5
		c-0.4,0.1-0.8-0.3-0.9-0.7c0-0.3,0.1-0.6,0.4-0.8c0,0,0.1,0,0.1-0.1l48.8-16.3L714.7,101.7z"/>
	<path class="st5" d="M295.9,493.1c-1,0.5-1.4,1.7-0.9,2.7c0.2,0.4,0.5,0.7,0.9,0.9l10.4,4.7c0.2,0.1,0.3,0.2,0.4,0.3
		c0.1,0.1,0.2,0.3,0.2,0.4l4,12.8c0.3,0.9,1.1,1.4,2,1.4l0,0c0.9,0,1.7-0.7,1.9-1.5l1.5-6.4c0.1-0.4,0.4-0.8,0.9-0.9
		c0.3-0.1,0.6,0,0.9,0.1l18.9,11.7c0.6,0.3,1.2,0.4,1.8,0.1c0.6-0.3,1-0.8,1.2-1.4l9.8-48.9c0.2-1.1-0.5-2.1-1.6-2.4
		c-0.4-0.1-0.9,0-1.3,0.2l-0.7,0.3L295.9,493.1z M296.3,495.9c-0.6-0.3-0.9-1-0.6-1.6c0.1-0.2,0.3-0.4,0.5-0.6l50.6-25.8l0.7-0.3
		c0.6-0.3,1.3-0.1,1.6,0.5c0.1,0.2,0.2,0.5,0.1,0.8l-9.8,48.9c-0.1,0.6-0.8,1.1-1.4,0.9c-0.1,0-0.3-0.1-0.4-0.2L318.6,507
		c-0.2-0.1-0.4-0.2-0.6-0.3l30-37.2c0.3-0.3,0.2-0.8-0.1-1.1c-0.3-0.2-0.6-0.2-0.9-0.1c0,0-0.1,0-0.1,0.1l-39.8,32.5
		c-0.1-0.1-0.2-0.2-0.4-0.2L296.3,495.9L296.3,495.9z"/>
	<path class="st6" d="M295.9,493.1c-1,0.5-1.4,1.7-0.9,2.7c0.2,0.4,0.5,0.7,0.9,0.9l10.4,4.7c0.2,0.1,0.3,0.2,0.4,0.3
		c0.1,0.1,0.2,0.3,0.2,0.4l4,12.8c0.3,0.9,1.1,1.4,2,1.4l0,0c0.9,0,1.7-0.7,1.9-1.5l1.5-6.4c0.1-0.4,0.4-0.8,0.9-0.9
		c0.3-0.1,0.6,0,0.9,0.1l18.9,11.7c0.6,0.3,1.2,0.4,1.8,0.1c0.6-0.3,1-0.8,1.2-1.4l9.8-48.9c0.2-1.1-0.5-2.1-1.6-2.4
		c-0.4-0.1-0.9,0-1.3,0.2l-0.7,0.3L295.9,493.1z M296.3,495.9c-0.6-0.3-0.9-1-0.6-1.6c0.1-0.2,0.3-0.4,0.5-0.6l50.6-25.8l0.7-0.3
		c0.6-0.3,1.3-0.1,1.6,0.5c0.1,0.2,0.2,0.5,0.1,0.8l-9.8,48.9c-0.1,0.6-0.8,1.1-1.4,0.9c-0.1,0-0.3-0.1-0.4-0.2L318.6,507
		c-0.2-0.1-0.4-0.2-0.6-0.3c-0.3-0.1-0.6-0.1-0.9,0c0,0-0.1,0-0.1,0l0,0c-0.7,0.2-1.2,0.8-1.3,1.4l-1.5,6.4
		c-0.1,0.5-0.6,0.9-1.1,0.9l0,0c-0.5,0-1-0.3-1.2-0.8l-4-12.8c0-0.1-0.1-0.3-0.2-0.4l0,0c-0.1-0.1-0.1-0.2-0.2-0.3
		c-0.1-0.1-0.2-0.2-0.3-0.3c-0.1-0.1-0.2-0.2-0.4-0.2L296.3,495.9L296.3,495.9z"/>
	<path class="st6" d="M307.1,500.9l39.8-32.5c0,0,0.1-0.1,0.1-0.1c0.4-0.2,0.9-0.1,1.1,0.3c0.2,0.3,0.1,0.6-0.1,0.9l-30,37.2
		l-0.5,0.7l-0.6-0.5l0.1-0.1l0,0l30.4-37.7l-39.8,32.5l0,0l-0.2,0.1l-0.5-0.6L307.1,500.9z"/>
</g>
</svg>
