<?xml version="1.0" encoding="utf-8"?>
<!-- Generator: Adobe Illustrator 25.0.0, SVG Export Plug-In . SVG Version: 6.00 Build 0)  -->
<svg version="1.1" id="_x34_57bf273-24a3-4fd8-a857-e9b918267d6a"
	 xmlns="http://www.w3.org/2000/svg" xmlns:xlink="http://www.w3.org/1999/xlink" x="0px" y="0px" viewBox="0 0 698 698"
	 style="enable-background:new 0 0 698 698;" xml:space="preserve">
<style type="text/css">
	.st0{fill:#7DAAD3;}
	.st1{fill:#333333;}
	.st2{opacity:0.1;enable-background:new    ;}
	.st3{fill:#FDB797;}
</style>
<g>
	<path class="st0" d="M353.2,634.1c66.8,0.1,132.1-19.4,187.8-56.2c-12.6-68.8-60.5-72.7-60.5-72.7H216.3c0,0-45.2,3.7-59.3,67
		C214.4,612.6,283,634.2,353.2,634.1z"/>
	<circle class="st1" cx="349.6" cy="283.9" r="164.9"/>
	<path class="st2" d="M296.3,421.2H402l0,0v84.5c0,29.2-23.6,52.8-52.8,52.8l0,0c-29.2,0-52.8-23.7-52.8-52.8l0,0L296.3,421.2
		L296.3,421.2L296.3,421.2z"/>
	<path class="st3" d="M299.7,417.3h99c1.9,0,3.4,1.5,3.4,3.4l0,0v81.2c0,29.2-23.6,52.8-52.8,52.8l0,0l0,0
		c-29.2,0-52.8-23.7-52.8-52.8l0,0v-81.2C296.4,418.8,297.9,417.3,299.7,417.3z"/>
	<path class="st2" d="M296.5,461.1c34.1,12.7,71.5,12.8,105.7,0.3v-13H296.5V461.1z"/>
	<circle class="st3" cx="349.6" cy="316.7" r="151.5"/>
	<path class="st2" d="M241.7,179c0,0,63.8,129.6,243.9,54.3l-41.9-65.7l-74.3-26.7L241.7,179z"/>
	<path class="st1" d="M241.7,177.1c0,0,63.8,129.6,243.9,54.3l-41.9-65.7L369.4,139L241.7,177.1z"/>
	<path class="st1" d="M241.1,168.3c4.3-13.3,11.7-25.4,21.7-35.3c29.8-29.5,78.6-35.7,103.7-69.2c6,9.3,1.4,23.6-9,27.6
		c24-0.2,51.8-2.3,65.4-22c6.8,15.9,3.9,34.4-7.6,47.4c21.3,1,44,15.4,45.3,36.6c0.9,14.2-8,27.6-19.6,35.7S415.3,201,401.4,204
		C361.1,213,214.7,250.4,241.1,168.3z"/>
	<ellipse class="st3" cx="198.1" cy="316.6" rx="14.1" ry="26.4"/>
	<ellipse class="st3" cx="501" cy="316.6" rx="14.1" ry="26.4"/>
</g>
</svg>
